<mxfile host="app.diagrams.net" modified="2021-06-11T17:33:42.848Z" agent="5.0 (Windows NT 10.0; Win64; x64) AppleWebKit/537.36 (KHTML, like Gecko) Chrome/90.0.4430.212 Safari/537.36" etag="ktrrybZh3INPFIcuV70_" version="14.7.7" type="github">
  <diagram id="Q9a4F_FlgEPpW-a-7laR" name="Page-1">
    <mxGraphModel dx="1865" dy="548" grid="1" gridSize="10" guides="1" tooltips="1" connect="1" arrows="1" fold="1" page="1" pageScale="1" pageWidth="827" pageHeight="1169" math="0" shadow="0">
      <root>
        <mxCell id="0" />
        <mxCell id="1" parent="0" />
        <mxCell id="J4N8zeV7B4DwcmObq3Ti-6" value="Supervised Learning : Types" style="text;html=1;strokeColor=none;fillColor=none;align=center;verticalAlign=middle;whiteSpace=wrap;rounded=0;fontStyle=1;fontSize=30;" vertex="1" parent="1">
          <mxGeometry x="110" y="10" width="460" height="90" as="geometry" />
        </mxCell>
        <mxCell id="J4N8zeV7B4DwcmObq3Ti-7" value="" style="rounded=1;whiteSpace=wrap;html=1;fontSize=30;strokeWidth=3;labelBackgroundColor=#E1D5E7;" vertex="1" parent="1">
          <mxGeometry x="-50" y="120" width="330" height="170" as="geometry" />
        </mxCell>
        <mxCell id="J4N8zeV7B4DwcmObq3Ti-8" value="" style="rounded=1;whiteSpace=wrap;html=1;fontSize=30;strokeWidth=3;" vertex="1" parent="1">
          <mxGeometry x="380" y="120" width="330" height="170" as="geometry" />
        </mxCell>
        <mxCell id="J4N8zeV7B4DwcmObq3Ti-9" value="Regression" style="text;html=1;strokeColor=none;fillColor=none;align=center;verticalAlign=middle;whiteSpace=wrap;rounded=0;fontSize=30;" vertex="1" parent="1">
          <mxGeometry x="515" y="140" width="40" height="20" as="geometry" />
        </mxCell>
        <mxCell id="J4N8zeV7B4DwcmObq3Ti-10" value="Classification" style="text;html=1;strokeColor=none;fillColor=none;align=center;verticalAlign=middle;whiteSpace=wrap;rounded=0;fontSize=30;" vertex="1" parent="1">
          <mxGeometry x="80" y="140" width="40" height="20" as="geometry" />
        </mxCell>
        <mxCell id="J4N8zeV7B4DwcmObq3Ti-12" value="" style="endArrow=none;html=1;fontSize=30;exitX=-0.002;exitY=0.342;exitDx=0;exitDy=0;exitPerimeter=0;entryX=1.003;entryY=0.342;entryDx=0;entryDy=0;entryPerimeter=0;" edge="1" parent="1" source="J4N8zeV7B4DwcmObq3Ti-8" target="J4N8zeV7B4DwcmObq3Ti-8">
          <mxGeometry width="50" height="50" relative="1" as="geometry">
            <mxPoint x="390" y="260" as="sourcePoint" />
            <mxPoint x="700" y="178" as="targetPoint" />
          </mxGeometry>
        </mxCell>
        <mxCell id="J4N8zeV7B4DwcmObq3Ti-16" value="" style="endArrow=none;html=1;fontSize=30;entryX=-0.004;entryY=0.324;entryDx=0;entryDy=0;entryPerimeter=0;exitX=0.999;exitY=0.324;exitDx=0;exitDy=0;exitPerimeter=0;" edge="1" parent="1" source="J4N8zeV7B4DwcmObq3Ti-7" target="J4N8zeV7B4DwcmObq3Ti-7">
          <mxGeometry width="50" height="50" relative="1" as="geometry">
            <mxPoint x="390" y="260" as="sourcePoint" />
            <mxPoint x="440" y="210" as="targetPoint" />
            <Array as="points" />
          </mxGeometry>
        </mxCell>
        <mxCell id="J4N8zeV7B4DwcmObq3Ti-17" value="Learning a discreate valued function" style="text;html=1;strokeColor=none;fillColor=none;align=center;verticalAlign=middle;whiteSpace=wrap;rounded=0;fontSize=20;" vertex="1" parent="1">
          <mxGeometry x="-35" y="210" width="300" height="20" as="geometry" />
        </mxCell>
        <mxCell id="J4N8zeV7B4DwcmObq3Ti-19" value="Learning a continuous valued function" style="text;html=1;strokeColor=none;fillColor=none;align=center;verticalAlign=middle;whiteSpace=wrap;rounded=0;fontSize=20;" vertex="1" parent="1">
          <mxGeometry x="395" y="210" width="300" height="20" as="geometry" />
        </mxCell>
        <mxCell id="J4N8zeV7B4DwcmObq3Ti-23" value="Classification of class of input is called as Classification , example . Ki ye apple class Hai aur ye orange class hai so this is classification ." style="text;html=1;strokeColor=none;fillColor=none;align=center;verticalAlign=middle;whiteSpace=wrap;rounded=0;labelBackgroundColor=#FFFFFF;fontSize=20;" vertex="1" parent="1">
          <mxGeometry x="10" y="430" width="640" height="130" as="geometry" />
        </mxCell>
        <mxCell id="J4N8zeV7B4DwcmObq3Ti-24" value="Classification" style="text;html=1;strokeColor=none;fillColor=none;align=center;verticalAlign=middle;whiteSpace=wrap;rounded=0;labelBackgroundColor=#E1D5E7;fontSize=25;" vertex="1" parent="1">
          <mxGeometry x="60" y="420" width="40" height="20" as="geometry" />
        </mxCell>
        <mxCell id="J4N8zeV7B4DwcmObq3Ti-25" value="Regression" style="text;html=1;strokeColor=none;fillColor=none;align=center;verticalAlign=middle;whiteSpace=wrap;rounded=0;labelBackgroundColor=#E1D5E7;fontSize=25;" vertex="1" parent="1">
          <mxGeometry x="50" y="565" width="40" height="20" as="geometry" />
        </mxCell>
        <mxCell id="J4N8zeV7B4DwcmObq3Ti-26" value="&lt;font style=&quot;font-size: 20px&quot;&gt;any continuous or random value will come , your machine will be able to predict the answer&amp;nbsp; ex.&lt;/font&gt;" style="text;html=1;strokeColor=none;fillColor=none;align=center;verticalAlign=middle;whiteSpace=wrap;rounded=0;labelBackgroundColor=#FFFFFF;fontSize=25;" vertex="1" parent="1">
          <mxGeometry x="10" y="620" width="640" height="70" as="geometry" />
        </mxCell>
        <mxCell id="J4N8zeV7B4DwcmObq3Ti-27" value="" style="endArrow=none;html=1;fontSize=25;" edge="1" parent="1">
          <mxGeometry width="50" height="50" relative="1" as="geometry">
            <mxPoint x="120" y="880" as="sourcePoint" />
            <mxPoint x="120" y="720" as="targetPoint" />
          </mxGeometry>
        </mxCell>
        <mxCell id="J4N8zeV7B4DwcmObq3Ti-28" value="" style="endArrow=none;html=1;fontSize=25;" edge="1" parent="1">
          <mxGeometry width="50" height="50" relative="1" as="geometry">
            <mxPoint x="50" y="760" as="sourcePoint" />
            <mxPoint x="210" y="760" as="targetPoint" />
          </mxGeometry>
        </mxCell>
        <mxCell id="J4N8zeV7B4DwcmObq3Ti-29" value="" style="endArrow=none;html=1;fontSize=25;" edge="1" parent="1">
          <mxGeometry width="50" height="50" relative="1" as="geometry">
            <mxPoint x="50" y="800" as="sourcePoint" />
            <mxPoint x="210" y="800" as="targetPoint" />
          </mxGeometry>
        </mxCell>
        <mxCell id="J4N8zeV7B4DwcmObq3Ti-30" value="" style="endArrow=none;html=1;fontSize=25;" edge="1" parent="1">
          <mxGeometry width="50" height="50" relative="1" as="geometry">
            <mxPoint x="50" y="840" as="sourcePoint" />
            <mxPoint x="210" y="840" as="targetPoint" />
          </mxGeometry>
        </mxCell>
        <mxCell id="J4N8zeV7B4DwcmObq3Ti-31" value="input" style="text;html=1;strokeColor=none;fillColor=none;align=center;verticalAlign=middle;whiteSpace=wrap;rounded=0;labelBackgroundColor=#FFFFFF;fontSize=25;" vertex="1" parent="1">
          <mxGeometry x="60" y="730" width="40" height="20" as="geometry" />
        </mxCell>
        <mxCell id="J4N8zeV7B4DwcmObq3Ti-32" value="Y" style="text;html=1;align=center;verticalAlign=middle;resizable=0;points=[];autosize=1;strokeColor=none;fontSize=25;" vertex="1" parent="1">
          <mxGeometry x="150" y="720" width="30" height="40" as="geometry" />
        </mxCell>
        <mxCell id="J4N8zeV7B4DwcmObq3Ti-33" value="2" style="text;html=1;align=center;verticalAlign=middle;resizable=0;points=[];autosize=1;strokeColor=none;fontSize=25;" vertex="1" parent="1">
          <mxGeometry x="65" y="760" width="30" height="40" as="geometry" />
        </mxCell>
        <mxCell id="J4N8zeV7B4DwcmObq3Ti-34" value="3" style="text;html=1;align=center;verticalAlign=middle;resizable=0;points=[];autosize=1;strokeColor=none;fontSize=25;" vertex="1" parent="1">
          <mxGeometry x="65" y="800" width="30" height="40" as="geometry" />
        </mxCell>
        <mxCell id="J4N8zeV7B4DwcmObq3Ti-35" value="4" style="text;html=1;align=center;verticalAlign=middle;resizable=0;points=[];autosize=1;strokeColor=none;fontSize=25;" vertex="1" parent="1">
          <mxGeometry x="70" y="840" width="30" height="40" as="geometry" />
        </mxCell>
        <mxCell id="J4N8zeV7B4DwcmObq3Ti-36" value="4" style="text;html=1;align=center;verticalAlign=middle;resizable=0;points=[];autosize=1;strokeColor=none;fontSize=25;" vertex="1" parent="1">
          <mxGeometry x="145" y="760" width="30" height="40" as="geometry" />
        </mxCell>
        <mxCell id="J4N8zeV7B4DwcmObq3Ti-37" value="5" style="text;html=1;align=center;verticalAlign=middle;resizable=0;points=[];autosize=1;strokeColor=none;fontSize=25;" vertex="1" parent="1">
          <mxGeometry x="145" y="800" width="30" height="40" as="geometry" />
        </mxCell>
        <mxCell id="J4N8zeV7B4DwcmObq3Ti-38" value="6" style="text;html=1;align=center;verticalAlign=middle;resizable=0;points=[];autosize=1;strokeColor=none;fontSize=25;" vertex="1" parent="1">
          <mxGeometry x="145" y="840" width="30" height="40" as="geometry" />
        </mxCell>
        <mxCell id="J4N8zeV7B4DwcmObq3Ti-42" value="&lt;font style=&quot;font-size: 17px&quot;&gt;Now if input comes as 5 than machine will print it&#39;s value 7 cause by few examples machine understood that it needs to be increase by value +2&lt;/font&gt;" style="text;html=1;strokeColor=none;fillColor=none;align=center;verticalAlign=middle;whiteSpace=wrap;rounded=0;labelBackgroundColor=#FFFFFF;fontSize=25;" vertex="1" parent="1">
          <mxGeometry x="250" y="730" width="390" height="130" as="geometry" />
        </mxCell>
      </root>
    </mxGraphModel>
  </diagram>
</mxfile>
